<?xml version="1.0" standalone="no"?>
<!DOCTYPE svg PUBLIC "-//W3C//DTD SVG 20010904//EN"
 "http://www.w3.org/TR/2001/REC-SVG-20010904/DTD/svg10.dtd">
<svg version="1.0" xmlns="http://www.w3.org/2000/svg"
 width="1274.000000pt" height="1274.000000pt" viewBox="0 0 1274.000000 1274.000000"
 preserveAspectRatio="xMidYMid meet">
<metadata>
Created by potrace 1.11, written by Peter Selinger 2001-2013
</metadata>
<g transform="translate(0.000000,1274.000000) scale(0.100000,-0.100000)"
fill="#000000" stroke="none">
<path d="M2922 12359 c-206 -18 -427 -68 -623 -140 -209 -76 -533 -243 -748
-386 -325 -216 -749 -664 -988 -1044 -69 -110 -327 -639 -391 -802 -93 -235
-121 -334 -142 -505 -66 -517 -12 -1114 150 -1662 205 -696 420 -1137 935
-1921 100 -151 182 -262 274 -369 128 -149 319 -392 530 -675 143 -192 236
-305 516 -625 323 -370 385 -444 496 -590 85 -111 138 -185 297 -413 72 -103
162 -268 315 -572 145 -291 156 -318 232 -590 19 -71 56 -172 80 -222 48 -98
181 -303 197 -303 20 0 57 50 64 85 12 67 -3 186 -46 355 -49 197 -83 307
-109 358 -10 20 -38 84 -61 142 -64 159 -219 488 -257 548 -18 29 -68 101
-111 160 -43 59 -91 130 -107 157 -16 28 -44 67 -63 88 -18 22 -73 98 -120
170 -106 161 -222 316 -316 420 -39 43 -87 102 -106 132 -75 115 -349 456
-455 565 -61 63 -185 207 -275 320 -185 232 -528 645 -635 765 -202 227 -303
386 -613 967 -203 379 -274 541 -371 842 -86 267 -151 551 -186 811 -8 66 -23
163 -32 215 -34 195 -9 710 48 983 38 182 120 390 251 632 178 328 224 399
459 700 291 375 611 643 981 825 68 33 137 68 153 77 17 9 66 35 110 59 238
128 545 197 880 198 88 0 194 -6 235 -13 315 -54 719 -208 945 -361 215 -145
517 -426 650 -605 109 -147 178 -205 244 -205 25 0 36 45 34 140 -1 109 -48
203 -179 357 -38 44 -96 115 -128 158 -99 127 -223 228 -480 389 -139 87 -427
223 -584 275 -291 98 -639 138 -950 110z"/>
<path d="M7930 12327 c-3 -3 -99 -12 -215 -21 -282 -23 -363 -32 -529 -62
-254 -47 -366 -88 -628 -232 -209 -115 -383 -236 -606 -425 -261 -221 -473
-531 -527 -772 -4 -16 -13 -79 -20 -140 l-14 -110 25 -53 c44 -91 134 -132
246 -112 117 22 153 51 235 190 239 406 633 745 1089 935 292 123 803 196
1212 174 201 -10 359 -36 595 -94 350 -88 479 -142 664 -281 297 -222 512
-443 689 -709 117 -174 148 -240 221 -470 120 -381 162 -645 170 -1085 5 -270
3 -318 -21 -565 -67 -678 -120 -963 -257 -1393 -73 -225 -306 -778 -456 -1077
-96 -191 -132 -252 -378 -640 -47 -74 -122 -178 -195 -270 -30 -38 -76 -102
-101 -140 -51 -78 -120 -162 -249 -305 -48 -52 -131 -151 -185 -220 -54 -69
-171 -210 -260 -315 -89 -104 -216 -258 -283 -341 -163 -202 -257 -301 -464
-485 -95 -85 -207 -189 -248 -233 -149 -156 -262 -212 -405 -203 -44 3 -107
15 -140 26 -150 50 -502 86 -689 70 -108 -9 -304 -51 -426 -90 -242 -79 -583
-290 -750 -465 -131 -137 -187 -235 -255 -444 -33 -103 -37 -126 -37 -220 0
-63 7 -129 16 -165 40 -151 133 -278 244 -332 53 -26 66 -28 172 -27 126 0
187 11 329 56 165 52 510 210 586 267 27 21 176 121 330 223 154 102 309 208
345 237 36 28 97 76 136 105 38 30 106 87 150 128 117 109 125 113 219 112 65
0 101 -7 195 -38 133 -44 414 -149 715 -266 418 -163 794 -300 975 -355 102
-31 341 -110 531 -175 599 -205 749 -241 1335 -315 147 -19 628 -22 789 -6
310 32 503 73 664 140 154 63 201 90 240 138 l31 38 -37 7 c-49 8 -136 -1
-476 -51 -320 -47 -403 -50 -795 -26 -270 16 -369 27 -547 56 -300 50 -445 88
-867 230 -692 231 -1357 486 -1913 734 -126 56 -275 116 -330 133 -96 30 -145
60 -145 90 0 6 326 339 724 739 504 507 770 783 877 908 84 99 221 257 304
350 222 249 524 655 695 935 100 163 345 616 390 720 46 108 184 474 208 550
11 36 38 115 61 175 78 211 221 865 257 1176 12 110 17 274 21 689 5 597 7
576 -62 991 -86 514 -221 873 -424 1129 -286 362 -485 553 -771 745 -234 156
-511 289 -802 384 -317 104 -533 138 -928 148 -135 3 -247 3 -250 0z m-1138
-9802 c21 -9 -64 -80 -386 -323 -265 -200 -441 -314 -601 -392 -171 -83 -276
-110 -450 -117 -129 -4 -143 -3 -172 16 -43 27 -44 67 -2 141 42 74 249 277
369 362 229 162 527 281 800 318 73 10 416 6 442 -5z"/>
<path d="M7252 10353 c-54 -26 -83 -74 -93 -150 -4 -38 -16 -93 -25 -123 -11
-38 -18 -109 -21 -230 -4 -150 -1 -204 22 -375 38 -293 42 -379 20 -446 -33
-97 -23 -252 22 -342 22 -44 83 -107 125 -128 50 -26 153 -35 202 -19 118 38
195 197 159 327 -41 150 -45 186 -39 348 3 88 12 205 21 260 8 55 18 168 21
250 10 231 -21 341 -144 502 -72 93 -87 108 -135 128 -47 19 -93 19 -135 -2z
m170 -305 c56 -46 74 -271 39 -498 -12 -74 -26 -205 -32 -291 l-11 -156 31
-103 c45 -151 39 -206 -26 -239 -30 -15 -47 -14 -73 7 l-22 18 18 159 c15 139
16 176 5 285 -7 69 -21 159 -31 200 -40 159 -50 430 -19 534 13 45 59 96 86
96 11 0 26 -6 35 -12z"/>
<path d="M8570 10081 c-162 -52 -272 -201 -316 -430 -19 -101 -34 -318 -32
-466 1 -108 -2 -127 -27 -194 -15 -41 -54 -123 -86 -183 -78 -142 -118 -243
-125 -317 l-7 -59 -66 -30 c-89 -41 -144 -55 -366 -96 -104 -20 -222 -45 -262
-56 -146 -40 -248 -101 -282 -168 -45 -88 -116 -135 -299 -196 -178 -60 -254
-98 -307 -154 -24 -26 -69 -73 -100 -106 -99 -104 -105 -192 -29 -409 20 -56
40 -118 46 -137 6 -19 23 -60 38 -91 56 -110 63 -162 54 -384 -4 -110 -8 -254
-9 -320 0 -126 4 -145 97 -420 54 -162 181 -321 304 -383 97 -49 162 -58 312
-44 70 7 226 19 347 27 454 30 613 52 790 106 107 33 244 97 319 148 128 89
239 337 268 604 10 94 9 115 -5 155 -9 26 -30 99 -48 161 -43 158 -68 218
-165 401 -38 71 -57 157 -74 342 -13 135 -2 226 42 343 43 112 43 213 3 305
-21 46 -28 79 -27 115 2 65 58 260 128 444 175 459 217 600 236 781 6 58 20
130 30 160 25 69 34 198 19 270 -25 120 -90 216 -178 260 -51 26 -172 38 -223
21z m162 -247 l31 -16 -6 -137 c-12 -274 -85 -571 -227 -931 -182 -458 -208
-626 -124 -794 l25 -49 -20 -61 c-39 -118 -52 -192 -58 -343 -10 -261 41 -529
124 -644 46 -65 110 -204 135 -296 32 -119 30 -280 -5 -396 -14 -49 -36 -104
-47 -122 -38 -62 -112 -116 -245 -180 -240 -116 -359 -140 -780 -155 -167 -6
-333 -18 -412 -29 -190 -28 -212 -20 -354 126 -78 80 -88 95 -116 173 -50 140
-67 240 -57 350 4 52 8 165 8 250 1 187 -6 218 -111 541 l-76 236 30 65 c59
126 163 199 421 294 145 54 155 59 182 99 63 91 184 171 324 214 37 12 139 35
225 51 233 45 329 70 403 102 l66 30 48 116 c116 284 154 363 223 457 37 51
57 178 71 462 12 236 23 312 61 417 47 129 104 186 187 186 24 0 57 -7 74 -16z"/>
<path d="M7695 7737 c-110 -37 -209 -122 -253 -215 -24 -50 -27 -69 -27 -163
0 -101 1 -108 38 -181 45 -92 113 -157 195 -188 49 -19 73 -21 167 -18 92 3
119 8 165 29 87 41 168 130 199 219 23 66 32 180 20 243 -22 108 -117 212
-236 257 -72 28 -210 36 -268 17z m220 -168 c144 -39 192 -213 93 -334 -47
-56 -80 -68 -188 -69 -105 -1 -138 11 -198 67 -62 59 -63 141 -2 225 69 96
188 140 295 111z"/>
<path d="M7790 7483 c-96 -49 -109 -222 -20 -268 109 -56 244 55 210 174 -23
81 -120 129 -190 94z"/>
<path d="M6887 7560 c-68 -12 -150 -54 -188 -97 -17 -21 -46 -67 -63 -103 -29
-60 -31 -73 -31 -175 0 -103 2 -114 32 -177 39 -83 108 -154 188 -194 54 -26
70 -29 160 -29 90 0 104 3 145 26 137 81 231 262 217 416 -9 97 -75 210 -153
264 -85 58 -208 86 -307 69z m180 -181 c40 -15 91 -67 104 -107 29 -88 3 -197
-61 -259 -44 -43 -87 -56 -171 -51 -73 4 -104 20 -143 71 -29 39 -34 143 -11
204 21 55 78 121 120 139 37 16 124 18 162 3z"/>
<path d="M6904 7281 c-47 -29 -77 -77 -82 -133 -8 -86 25 -118 124 -118 94 0
144 41 144 118 0 115 -99 186 -186 133z"/>
<path d="M7460 6883 c-97 -33 -161 -100 -168 -174 -4 -45 -2 -51 27 -78 112
-105 391 11 391 161 0 68 -57 108 -152 108 -29 -1 -73 -8 -98 -17z"/>
<path d="M7970 6536 c-19 -7 -73 -36 -120 -66 -47 -29 -114 -67 -150 -84 -60
-29 -73 -31 -175 -31 -125 0 -167 11 -309 81 -123 60 -188 59 -220 -4 -53
-105 -4 -261 124 -392 67 -69 149 -111 285 -145 l99 -25 81 20 c44 11 127 43
185 72 88 44 118 66 190 138 105 105 150 188 158 290 10 138 -39 186 -148 146z
m30 -141 c0 -25 -29 -88 -53 -114 -58 -63 -231 -172 -299 -189 -65 -16 -101
-15 -218 8 -139 27 -201 63 -275 158 -77 99 -30 108 106 22 122 -79 202 -104
313 -98 109 6 181 40 309 146 54 45 102 82 108 82 5 0 9 -7 9 -15z"/>
<path d="M4314 10023 c-85 -28 -169 -128 -205 -244 -25 -79 -24 -185 1 -294
14 -59 20 -121 20 -201 0 -176 -35 -317 -133 -534 -49 -109 -52 -119 -52 -200
0 -75 3 -91 27 -132 37 -62 91 -88 180 -88 l66 0 67 72 c112 122 170 264 216
533 11 66 38 175 59 242 54 164 73 295 68 447 l-4 121 -58 113 c-46 90 -66
119 -97 139 -52 34 -104 43 -155 26z m75 -264 c12 -12 32 -42 44 -68 19 -41
21 -65 21 -231 1 -254 -12 -304 -170 -649 -47 -102 -90 -190 -95 -196 -14 -14
-11 8 6 50 30 71 85 277 106 398 24 136 30 353 15 518 -10 105 -4 160 20 184
20 20 26 19 53 -6z"/>
<path d="M6155 10007 c-97 -39 -144 -101 -166 -222 -19 -102 3 -206 94 -450
71 -190 107 -329 147 -565 36 -214 52 -276 91 -359 42 -91 87 -142 159 -180
83 -44 166 -52 233 -23 67 30 89 78 94 207 4 91 2 110 -30 220 -19 66 -38 136
-42 155 -4 19 -20 61 -36 93 -70 137 -106 256 -160 517 -48 234 -96 446 -110
480 -13 35 -70 95 -109 115 -42 22 -127 28 -165 12z m121 -335 c9 -32 38 -167
65 -302 52 -261 66 -303 178 -548 95 -206 118 -321 82 -414 l-10 -27 -40 16
c-34 13 -43 23 -60 67 -30 78 -38 110 -66 261 -28 149 -69 364 -87 455 -6 30
-38 129 -71 220 -52 142 -61 175 -61 235 -1 127 37 147 70 37z"/>
<path d="M3270 9904 c-79 -26 -89 -35 -102 -93 -21 -94 -14 -305 16 -491 41
-261 46 -311 56 -565 9 -252 18 -317 55 -401 39 -87 124 -156 212 -170 57 -9
132 30 157 82 55 115 64 231 38 484 -12 107 -24 290 -27 405 -10 325 -22 411
-86 580 -35 94 -77 138 -153 160 -48 14 -135 19 -166 9z m163 -332 c28 -100
39 -194 38 -312 -1 -72 8 -189 24 -310 26 -207 32 -387 14 -470 -11 -53 -16
-57 -41 -37 -12 9 -19 43 -27 132 -72 819 -81 935 -75 985 13 108 39 113 67
12z"/>
<path d="M2435 9397 c-109 -61 -163 -227 -151 -457 16 -293 61 -429 298 -897
98 -194 198 -402 223 -462 105 -257 98 -466 -31 -871 -45 -140 -46 -147 -35
-204 14 -79 65 -185 132 -272 126 -167 274 -336 332 -380 156 -117 326 -170
622 -194 443 -36 730 34 848 207 48 72 91 310 127 713 11 129 32 318 46 420
22 160 24 193 14 250 -29 165 -140 301 -295 359 -29 11 -106 27 -173 35 -201
27 -293 64 -375 156 -25 27 -53 72 -63 100 -15 41 -24 52 -53 62 -42 15 -188
16 -386 4 -166 -10 -196 -4 -264 58 -127 116 -145 142 -200 301 -18 50 -45
124 -61 165 -16 41 -52 155 -80 254 -28 98 -62 206 -75 240 -13 33 -29 81 -35
106 -32 122 -143 299 -202 319 -51 18 -119 13 -163 -12z m195 -432 c20 -55 60
-179 89 -275 154 -515 190 -598 344 -802 62 -83 106 -115 178 -128 54 -10 70
-9 339 21 160 18 225 -8 250 -100 6 -24 26 -55 47 -76 69 -67 166 -98 398
-130 220 -30 315 -69 355 -149 36 -74 38 -180 7 -401 -14 -100 -28 -253 -31
-345 -13 -416 -85 -606 -259 -686 l-62 -29 -305 3 c-397 4 -465 17 -579 110
-25 20 -72 54 -105 76 -138 89 -342 331 -360 427 -11 59 10 164 70 354 l57
180 1 135 c1 169 -21 281 -107 540 -61 183 -63 186 -173 352 -75 113 -116 185
-128 225 -9 32 -40 127 -67 212 -28 86 -54 190 -60 235 -5 45 -17 125 -26 180
-18 111 -13 208 13 258 l17 32 30 -59 c16 -33 46 -105 67 -160z"/>
<path d="M3443 7419 c-68 -34 -156 -135 -177 -204 -66 -207 133 -479 360 -493
34 -2 78 1 97 7 50 17 118 80 147 137 22 44 25 61 25 164 0 110 -1 118 -33
183 -41 82 -111 156 -183 193 -74 37 -176 43 -236 13z m159 -149 c41 -12 102
-74 125 -129 33 -77 13 -184 -39 -212 -103 -55 -227 -4 -258 106 -24 86 14
194 80 227 41 21 43 21 92 8z"/>
<path d="M3534 7151 c-64 -39 -91 -102 -61 -142 18 -24 72 -49 106 -49 20 0
42 10 63 29 28 25 32 35 32 78 0 70 -23 103 -72 103 -20 0 -51 -9 -68 -19z"/>
<path d="M4141 7230 c-64 -23 -113 -59 -150 -111 -106 -145 -36 -401 134 -492
57 -31 183 -31 240 0 174 93 207 356 68 542 -56 74 -182 101 -292 61z m160
-157 c59 -35 92 -156 61 -229 -36 -85 -165 -86 -239 -1 -35 40 -48 83 -39 131
7 37 33 65 91 94 49 26 88 27 126 5z"/>
<path d="M4181 7004 c-78 -65 -53 -175 43 -191 43 -7 71 13 92 64 22 52 18 91
-15 124 -37 37 -79 38 -120 3z"/>
<path d="M3820 6673 c-59 -22 -76 -83 -38 -138 36 -54 83 -79 154 -83 57 -4
65 -2 88 21 16 16 26 37 26 54 0 85 -146 177 -230 146z"/>
<path d="M3445 6549 c-12 -36 5 -111 41 -185 67 -136 210 -250 364 -290 53
-13 73 -14 124 -4 144 28 296 132 332 227 15 38 15 46 3 54 -24 15 -45 10
-136 -33 -87 -42 -90 -43 -193 -43 -115 1 -191 15 -261 51 -70 35 -103 67
-165 160 -44 65 -61 84 -79 84 -15 0 -26 -8 -30 -21z"/>
<path d="M4982 9132 c-23 -11 -49 -43 -91 -111 -173 -284 -222 -384 -267 -545
-14 -50 -52 -151 -85 -225 -75 -166 -89 -220 -79 -288 16 -96 84 -189 174
-235 114 -58 182 1 271 234 26 68 56 139 67 158 12 19 29 60 39 90 11 30 58
126 106 214 130 239 138 263 135 423 -1 94 -6 144 -17 170 -44 105 -164 160
-253 115z m82 -294 c23 -33 20 -50 -24 -120 -21 -35 -76 -153 -121 -263 -76
-184 -153 -335 -170 -335 -33 0 -26 92 15 200 20 52 40 102 45 111 5 9 31 68
56 130 59 143 110 241 142 274 31 31 38 31 57 3z"/>
<path d="M5644 8971 c-11 -5 -33 -23 -47 -41 -100 -118 -129 -271 -87 -450 27
-114 114 -289 181 -365 71 -81 104 -136 182 -295 78 -161 125 -224 196 -267
59 -35 83 -33 129 10 86 80 67 217 -63 463 -67 126 -110 230 -176 422 -21 62
-47 127 -58 145 -11 18 -33 84 -49 148 -33 133 -56 185 -92 210 -31 22 -88 31
-116 20z m175 -621 c75 -167 111 -259 111 -282 0 -23 -126 159 -172 248 -81
158 -109 290 -71 344 16 23 17 23 38 -61 11 -46 54 -158 94 -249z"/>
<path d="M9628 7955 c-55 -15 -124 -54 -174 -97 -112 -99 -218 -325 -255 -546
-6 -37 -27 -114 -47 -172 -30 -87 -36 -119 -36 -190 -1 -68 3 -92 19 -120 31
-52 78 -75 155 -75 77 0 131 26 235 112 56 46 71 66 105 138 64 140 181 308
356 512 40 47 76 99 82 122 19 60 15 146 -8 190 -27 54 -94 108 -156 126 -63
18 -210 18 -276 0z m221 -224 c24 -15 -22 -74 -113 -145 -97 -76 -145 -140
-186 -254 -53 -146 -96 -216 -156 -253 -18 -11 -39 -17 -45 -14 -13 9 -7 52
15 115 8 25 24 85 35 134 46 200 160 359 296 413 36 14 134 16 154 4z"/>
<path d="M1598 7486 c-104 -30 -190 -104 -233 -200 -27 -59 -59 -219 -51 -253
4 -12 19 -29 34 -37 34 -17 131 -36 189 -36 112 0 329 -65 594 -179 91 -39
176 -71 187 -71 35 0 127 39 149 63 57 60 69 218 24 309 -68 141 -234 255
-521 360 -119 44 -146 50 -230 54 -61 2 -112 -1 -142 -10z m311 -222 c262
-105 431 -205 431 -255 0 -11 -14 -28 -32 -40 -47 -29 -104 -20 -249 41 -129
54 -191 70 -274 70 -66 0 -137 24 -175 60 -61 57 -29 138 64 159 80 18 116 12
235 -35z"/>
</g>
</svg>
